<svg width="40" height="40" viewBox="0 0 40 40" fill="none" xmlns="http://www.w3.org/2000/svg">
    <path d="M20 40C22.7357 40 25.3116 39.4788 27.7277 38.4365C30.1438 37.3941 32.2691 35.952 34.1035 34.1103C35.938 32.2686 37.3794 30.1423 38.4276 27.7314C39.4759 25.3205 40 22.7402 40 19.9904C40 17.2534 39.4759 14.6795 38.4276 12.2686C37.3794 9.85771 35.938 7.73141 34.1035 5.88969C32.2691 4.04796 30.1406 2.60592 27.7181 1.56355C25.2956 0.521183 22.7165 0 19.9808 0C17.2451 0 14.6692 0.521183 12.2531 1.56355C9.83701 2.60592 7.71173 4.04796 5.87728 5.88969C4.04283 7.73141 2.60467 9.85771 1.5628 12.2686C0.520933 14.6795 0 17.2534 0 19.9904C0 22.7402 0.520933 25.3205 1.5628 27.7314C2.60467 30.1423 4.04602 32.2686 5.88686 34.1103C7.72771 35.952 9.85618 37.3941 12.2723 38.4365C14.6884 39.4788 17.2643 40 20 40Z" fill="#FBF9E4"/>
    <path d="M13.5163 28.3332C12.9916 28.3332 12.5521 28.1521 12.198 27.79C11.8438 27.4279 11.6667 26.9902 11.6667 26.4769C11.6667 25.9634 11.8503 25.5289 12.2176 25.1734L17.3534 19.9999L12.2176 14.8458C11.8503 14.4772 11.6667 14.0427 11.6667 13.5425C11.6667 13.0159 11.8438 12.5782 12.198 12.2293C12.5521 11.8804 12.9916 11.706 13.5163 11.706C14.0148 11.706 14.4543 11.8771 14.8347 12.2194L19.9902 17.3734L25.185 12.2194C25.5392 11.8508 25.9721 11.6665 26.4836 11.6665C26.9953 11.6665 27.4314 11.8475 27.7921 12.2096C28.1529 12.5716 28.3333 13.0093 28.3333 13.5227C28.3333 14.023 28.1496 14.4574 27.7822 14.826L22.6268 19.9999L27.7627 25.1538C28.13 25.4961 28.3136 25.9371 28.3136 26.4769C28.3136 26.9902 28.1333 27.4279 27.7726 27.79C27.4118 28.1521 26.969 28.3332 26.4443 28.3332C25.9065 28.3332 25.4604 28.1554 25.1062 27.7999L19.9902 22.6458L14.8741 27.7999C14.5068 28.1554 14.0542 28.3332 13.5163 28.3332Z" fill="#B394C9"/>
</svg>