<svg width="25" height="24" viewBox="0 0 25 24" fill="none" xmlns="http://www.w3.org/2000/svg">
    <path d="M4.05 10.5H5.75C5.96667 10.5 6.14567 10.571 6.287 10.713C6.42834 10.855 6.49934 11.034 6.5 11.25C6.5 11.4667 6.429 11.6457 6.287 11.787C6.145 11.9283 5.966 11.9993 5.75 12H2.5C2.21667 12 1.979 11.904 1.787 11.712C1.595 11.52 1.49934 11.2827 1.5 11V7.75C1.5 7.53333 1.571 7.35433 1.713 7.213C1.855 7.07167 2.034 7.00067 2.25 7C2.46667 7 2.64567 7.071 2.787 7.213C2.92834 7.355 2.99934 7.534 3 7.75V9.45L5.45 7C5.6 6.85 5.775 6.775 5.975 6.775C6.175 6.775 6.35 6.85 6.5 7C6.65 7.15 6.725 7.325 6.725 7.525C6.725 7.725 6.65 7.9 6.5 8.05L4.05 10.5ZM11 3.55L8.55 6C8.4 6.15 8.225 6.225 8.025 6.225C7.825 6.225 7.65 6.15 7.5 6C7.35 5.85 7.275 5.675 7.275 5.475C7.275 5.275 7.35 5.1 7.5 4.95L9.95 2.5H8.25C8.03334 2.5 7.854 2.429 7.712 2.287C7.57 2.145 7.49934 1.966 7.5 1.75C7.5 1.53333 7.571 1.35433 7.713 1.213C7.855 1.07167 8.034 1.00067 8.25 1H11.5C11.7833 1 12.021 1.096 12.213 1.288C12.405 1.48 12.5007 1.71733 12.5 2V5.25C12.5 5.46667 12.429 5.64567 12.287 5.787C12.145 5.92833 11.966 5.99933 11.75 6C11.5333 6 11.3543 5.929 11.213 5.787C11.0717 5.645 11.0007 5.466 11 5.25V3.55ZM15.325 23C14.925 23 14.5417 22.925 14.175 22.775C13.8083 22.625 13.4833 22.4083 13.2 22.125L8.8 17.7C8.61667 17.5167 8.52067 17.2873 8.512 17.012C8.50334 16.7367 8.591 16.4993 8.775 16.3L8.85 16.225C9.11667 15.9583 9.42934 15.7793 9.788 15.688C10.1467 15.5967 10.5007 15.6007 10.85 15.7L12.5 16.175V8C12.5 7.71667 12.596 7.479 12.788 7.287C12.98 7.095 13.2173 6.99933 13.5 7C13.7833 7 14.021 7.096 14.213 7.288C14.405 7.48 14.5007 7.71733 14.5 8V15H15.5V12C15.5 11.7167 15.596 11.479 15.788 11.287C15.98 11.095 16.2173 10.9993 16.5 11C16.7833 11 17.021 11.096 17.213 11.288C17.405 11.48 17.5007 11.7173 17.5 12V15H18.5V13C18.5 12.7167 18.596 12.479 18.788 12.287C18.98 12.095 19.2173 11.9993 19.5 12C19.7833 12 20.021 12.096 20.213 12.288C20.405 12.48 20.5007 12.7173 20.5 13V15H21.5C21.5 14.7167 21.596 14.479 21.788 14.287C21.98 14.095 22.2173 13.9993 22.5 14C22.7833 14 23.021 14.096 23.213 14.288C23.405 14.48 23.5007 14.7173 23.5 15V19C23.5 20.1 23.1083 21.0417 22.325 21.825C21.5417 22.6083 20.6 23 19.5 23H15.325Z" fill="#FBF9E4"/>
</svg>